<?xml version="1.0" standalone="no"?><!DOCTYPE svg PUBLIC "-//W3C//DTD SVG 1.1//EN" "http://www.w3.org/Graphics/SVG/1.1/DTD/svg11.dtd"><svg width="27px" height="25px" viewBox="0 0 24 20" version="1.1" xmlns="http://www.w3.org/2000/svg" xmlns:xlink="http://www.w3.org/1999/xlink" xml:space="preserve" style="fill-rule:evenodd;clip-rule:evenodd;stroke-linejoin:round;stroke-miterlimit:1.41421;"><path d="M23.995,0.738c0.004,-0.19 -0.066,-0.384 -0.212,-0.531c-0.158,-0.158 -0.367,-0.22 -0.571,-0.205l-22.425,0c-0.205,-0.015 -0.414,0.047 -0.571,0.205c-0.147,0.147 -0.216,0.341 -0.212,0.531c0,0.004 -0.004,0.008 -0.004,0.011l0,17.997c0,0.414 0.337,0.751 0.751,0.751l22.497,0c0.414,0 0.751,-0.337 0.751,-0.751l0,-17.997c0,-0.003 -0.004,-0.007 -0.004,-0.011ZM21.245,1.499l-9.245,8.02l-9.25,-8.02l18.495,0ZM22.498,17.248c0,0.414 -0.337,0.751 -0.751,0.751l-19.499,0c-0.414,0 -0.746,-0.337 -0.746,-0.751l0,-14.885l9.915,8.598c0.018,0.022 0.026,0.048 0.045,0.066c0.15,0.147 0.344,0.216 0.538,0.213c0.194,0.003 0.388,-0.066 0.538,-0.213c0.018,-0.018 0.025,-0.044 0.044,-0.066l9.916,-8.598l0,14.885Z" style="fill:#fff;"/></svg>