<?xml version="1.0" standalone="no"?><!DOCTYPE svg PUBLIC "-//W3C//DTD SVG 1.1//EN" "http://www.w3.org/Graphics/SVG/1.1/DTD/svg11.dtd"><svg width="100%" height="100%" viewBox="0 0 17 27" version="1.1" xmlns="http://www.w3.org/2000/svg" xmlns:xlink="http://www.w3.org/1999/xlink" xml:space="preserve" style="fill-rule:evenodd;clip-rule:evenodd;stroke-linejoin:round;stroke-miterlimit:1.41421;"><g><path d="M16,24.5l0,2.5l-16,0l0,-2.5l16,0ZM8.563,21.416l-8.46,0l0,-21.24l8.46,0c0.82,0 1.66,0.085 2.52,0.255c0.86,0.17 1.64,0.46 2.34,0.87c0.7,0.41 1.27,0.965 1.71,1.665c0.44,0.7 0.66,1.59 0.66,2.67c0,1.18 -0.32,2.155 -0.96,2.925c-0.64,0.77 -1.48,1.325 -2.52,1.665l0,0.06c0.6,0.1 1.165,0.285 1.695,0.555c0.53,0.27 0.99,0.615 1.38,1.035c0.39,0.42 0.7,0.91 0.93,1.47c0.23,0.56 0.345,1.19 0.345,1.89c0,1.16 -0.23,2.135 -0.69,2.925c-0.46,0.79 -1.07,1.425 -1.83,1.905c-0.76,0.48 -1.625,0.825 -2.595,1.035c-0.97,0.21 -1.965,0.315 -2.985,0.315ZM7.903,12.416l-2.85,0l0,4.86l2.88,0c0.4,0 0.815,-0.035 1.245,-0.105c0.43,-0.07 0.82,-0.195 1.17,-0.375c0.35,-0.18 0.635,-0.435 0.855,-0.765c0.22,-0.33 0.33,-0.755 0.33,-1.275c0,-0.88 -0.33,-1.49 -0.99,-1.83c-0.66,-0.34 -1.54,-0.51 -2.64,-0.51ZM7.573,4.256l-2.52,0l0,4.38l2.76,0c0.96,0 1.705,-0.195 2.235,-0.585c0.53,-0.39 0.795,-0.965 0.795,-1.725c0,-0.72 -0.275,-1.245 -0.825,-1.575c-0.55,-0.33 -1.365,-0.495 -2.445,-0.495Z" style="fill:#000;"/></g></svg>